<svg width="26" height="26" viewBox="0 0 26 26" fill="none" xmlns="http://www.w3.org/2000/svg">
<path d="M13 25C19.6274 25 25 19.6274 25 13C25 6.37258 19.6274 1 13 1C6.37258 1 1 6.37258 1 13C1 19.6274 6.37258 25 13 25Z" fill="url(#paint0_linear_5800_28164)" stroke="#33343C"/>
<path d="M18.1115 14.6604C18.1115 14.6485 18.1115 14.6372 18.1115 14.6253H18.111C18.0948 10.5059 13.859 9.77378 13.8853 7H11.4155C11.3899 11.1816 15.6708 11.9098 15.6418 14.6892H15.6435C15.61 15.9806 14.5526 17.0209 13.2569 17.0248C11.9641 17.0248 10.9128 15.9427 10.9128 14.618H8.5C8.5 17.3036 10.6299 19.4905 13.2497 19.4944C13.2497 19.4944 13.2547 19.4944 13.2569 19.4944C15.913 19.491 18.0769 17.342 18.111 14.6887H18.1115C18.1115 14.6791 18.1115 14.6694 18.1115 14.6598V14.6604Z" fill="black"/>
<path d="M14.715 14.6204C14.4053 12.7337 11.7782 11.6098 11.1232 9.82031H8.5C8.92854 12.1582 10.8977 12.7801 11.829 14.6204H14.715Z" fill="black"/>
<defs>
<linearGradient id="paint0_linear_5800_28164" x1="-3.65853" y1="-3.20754" x2="18.0443" y2="31.7096" gradientUnits="userSpaceOnUse">
<stop offset="0.137033" stop-color="#B0CAFD"/>
<stop offset="1" stop-color="#FFB4EF"/>
</linearGradient>
</defs>
</svg>
