<svg width="26" height="26" viewBox="0 0 26 26" fill="none" xmlns="http://www.w3.org/2000/svg">
<path d="M25.9294 13.0003C25.9294 20.1422 20.1399 25.9319 12.9981 25.9319C5.85618 25.9319 0.0665894 20.1422 0.0665894 13.0003C0.0665894 5.85844 5.85618 0.0688477 12.9981 0.0688477C20.1398 0.0688477 25.9294 5.85844 25.9294 13.0003Z" fill="#707CE2"/>
<g opacity="0.8">
<path d="M12.9568 7L12.8769 7.27148V15.1493L12.9568 15.229L16.6136 13.0675L12.9568 7Z" fill="white"/>
<path d="M12.9568 7L9.29999 13.0675L12.9568 15.229V11.4054V7Z" fill="white"/>
<path d="M12.9568 16.4187L12.9117 16.4736V19.2798L12.9568 19.4113L16.6157 14.2583L12.9568 16.4187Z" fill="white"/>
<path d="M12.9568 19.4113V16.4187L9.29999 14.2583L12.9568 19.4113Z" fill="white"/>
<path d="M12.9567 15.2289L16.6135 13.0674L12.9567 11.4053V15.2289Z" fill="white"/>
<path d="M9.29999 13.0674L12.9567 15.2289V11.4053L9.29999 13.0674Z" fill="white"/>
</g>
</svg>
