<svg width="32" height="32" viewBox="0 0 32 32" fill="none" xmlns="http://www.w3.org/2000/svg">
<g clip-path="url(#clip0_2392_13087)">
<path d="M16 32C24.8366 32 32 24.8366 32 16C32 7.16344 24.8366 0 16 0C7.16344 0 0 7.16344 0 16C0 24.8366 7.16344 32 16 32Z" fill="black"/>
<path d="M6 12.4159L9.48968 10H24.0619L26.1711 11.4572L24.9823 14.7935L21.8378 16.3274L23.8702 18.0531L22.7198 21.5044L19.767 23H7.38053L10.6401 12.7611L12.9794 14.3333L11.0619 20.5074H20.2271L21.3776 17.2094H14.705L15.2419 15.177H22.1062L22.8732 12.4159H6Z" fill="#FDFD03"/>
</g>
<defs>
<clipPath id="clip0_2392_13087">
<rect width="32" height="32" fill="white"/>
</clipPath>
</defs>
</svg>
